<svg id="eewToqhvAnm1" xmlns="http://www.w3.org/2000/svg" xmlns:xlink="http://www.w3.org/1999/xlink" viewBox="0 0 300 300" shape-rendering="geometricPrecision" text-rendering="geometricPrecision"><ellipse rx="7.30558" ry="7.30558" transform="translate(30.710583 271.07297)" fill="none" stroke="#d2dbed"/><ellipse rx="7.30558" ry="7.30558" transform="matrix(-.745911 0.666046-.666046-.745911 224.632724 89.625356)" fill="none" stroke="#d2dbed"/><ellipse rx="7.30558" ry="7.30558" transform="translate(30.710583 271.07297)" fill="none" stroke="#f00"/><ellipse rx="7.30558" ry="7.30558" transform="matrix(-.745911 0.666046-.666046-.745911 224.632724 89.625356)" fill="none" stroke="#f00"/><ellipse rx="25.237457" ry="25.237457" transform="translate(59.490141 209.086321)" fill="none" stroke="#4ab6f6"/><ellipse rx="25.237457" ry="25.237457" transform="matrix(-.745911 0.666046-.666046-.745911 253.412282 27.638707)" fill="#4ab6f6" fill-opacity="0" stroke="#4ab6f6" stroke-width="2"/><ellipse rx="19.924308" ry="19.924308" transform="matrix(1.533333 0 0 1.533329 69.009532 264.874297)" fill="none" stroke="#ebeb06"/><ellipse rx="19.924308" ry="19.924308" transform="matrix(-1.14373 1.02127-1.021267-1.143727 262.931673 83.426683)" fill="none" stroke="#ebeb06"/><ellipse rx="17.046352" ry="17.046352" transform="translate(23.405003 234.323778)" fill="none" stroke="#0fd87b"/><ellipse rx="17.046352" ry="17.046352" transform="matrix(-.745911 0.666046-.666046-.745911 217.327144 52.876164)" fill="none" stroke="#0fd87b"/><rect width="31.436131" height="31.436131" rx="0" ry="0" transform="translate(69.009532 263.76739)" fill="none" stroke="#e2e607"/></svg>
